<?xml version="1.0" encoding="utf-8"?>
<!-- Generator: Adobe Illustrator 16.0.0, SVG Export Plug-In . SVG Version: 6.00 Build 0)  -->
<!DOCTYPE svg PUBLIC "-//W3C//DTD SVG 1.1//EN" "http://www.w3.org/Graphics/SVG/1.1/DTD/svg11.dtd">
<svg version="1.1" id="Layer_1" xmlns="http://www.w3.org/2000/svg" xmlns:xlink="http://www.w3.org/1999/xlink" x="0px" y="0px"
	 width="147.571px" height="147.57px" viewBox="0 0 147.571 147.57" enable-background="new 0 0 147.571 147.57"
	 xml:space="preserve">
<g>
	<path fill-rule="evenodd" clip-rule="evenodd" fill="#5C3978" d="M39.431,36.268c-4.228-2.44-8.109-5.426-11.532-8.852
		c-3.434-3.434-6.433-7.312-8.866-11.539L2.938,25.159c3.255,5.644,7.252,10.811,11.815,15.382
		c4.588,4.575,9.737,8.554,15.376,11.814C41.073,58.683,53.758,62.3,67.291,62.3V43.726C57.14,43.726,47.62,41.016,39.431,36.268
		L39.431,36.268z"/>
	<path fill-rule="evenodd" clip-rule="evenodd" fill="#786490" d="M98.865,109.405v3.713c0,10.26-8.319,18.575-18.581,18.575
		v-18.575v-3.713V93.625v-9.285v-9.29c15.862,0,30.727-4.242,43.527-11.643l9.29,16.084c-10.417,6.028-21.963,10.335-34.236,12.505
		V109.405L98.865,109.405z"/>
	<path fill-rule="evenodd" clip-rule="evenodd" fill="#786490" d="M67.291,109.405v3.713v18.575
		c-10.265,0-18.581-8.315-18.581-18.575v-3.713V91.996c-12.276-2.17-23.821-6.477-34.237-12.505l9.276-16.084
		c12.814,7.4,27.676,11.643,43.542,11.643v9.29v9.285V109.405L67.291,109.405z"/>
	<path fill-rule="evenodd" clip-rule="evenodd" fill="#5C3978" d="M108.153,36.268c4.215-2.44,8.111-5.426,11.532-8.852
		c3.422-3.434,6.42-7.312,8.855-11.539l16.093,9.282c-3.253,5.644-7.239,10.811-11.814,15.382
		c-4.573,4.575-9.737,8.554-15.377,11.814C106.513,58.683,93.814,62.3,80.284,62.3V43.726
		C90.431,43.726,99.952,41.016,108.153,36.268z"/>
</g>
</svg>
